<?xml version='1.0' encoding='utf-8'?>
<svg xmlns="http://www.w3.org/2000/svg" viewBox="0 0 48 48" width="48.0" height="48.0"><path d="M0 11c0-6.075 4.925-11 11-11h26c6.075 0 11 4.925 11 11v26c0 6.075-4.925 11-11 11h-26c-6.075 0-11-4.925-11-11z" fill="#5F43D0" /><g transform="translate(11 10)"><path d="M25.501 27.995H20.246C19.273 27.995 18.315 27.759 17.453 27.308 16.592 26.856 15.852 26.203 15.298 25.403L11.999 20.638 9.419 16.912C9.302 16.741 9.133 16.613 8.938 16.546 8.742 16.478 8.53 16.475 8.333 16.537 8.135 16.599 7.963 16.722 7.841 16.889 7.718 17.056 7.653 17.258 7.654 17.465V26.445C7.654 26.856 7.49 27.25 7.2 27.541 6.909 27.832 6.515 27.995 6.104 27.995H1.55C1.139 27.994 0.745 27.831 0.455 27.54 0.164 27.25 0.001 26.856 0 26.445V19.76C0 18.969 0.156 18.187 0.458 17.456 0.761 16.726 1.204 16.063 1.763 15.504 2.322 14.945 2.985 14.502 3.715 14.199 4.446 13.897 5.228 13.741 6.019 13.741H7.205C7.282 13.741 7.357 13.722 7.425 13.687 7.493 13.651 7.551 13.6 7.594 13.537L11.99 7.198 15.177 2.594C15.73 1.793 16.469 1.139 17.331 0.687 18.193 0.235 19.152-0.001 20.125 0H25.375C25.461 0 25.546 0.024 25.62 0.068 25.694 0.113 25.754 0.177 25.795 0.253 25.835 0.33 25.854 0.416 25.849 0.502 25.844 0.588 25.815 0.672 25.766 0.743L18.075 11.852C17.654 12.458 17.428 13.179 17.428 13.917 17.428 14.655 17.654 15.375 18.075 15.982L25.902 27.25C25.952 27.322 25.981 27.406 25.986 27.494 25.991 27.581 25.971 27.668 25.93 27.745 25.888 27.823 25.826 27.887 25.75 27.931 25.675 27.975 25.588 27.997 25.501 27.995Z" fill="#FFFFFF" /></g></svg>